<?xml version="1.0" encoding="UTF-8" standalone="no"?>
<!-- Created with Sodipodi ("http://www.sodipodi.com/") -->
<svg
   xmlns:dc="http://purl.org/dc/elements/1.1/"
   xmlns:cc="http://web.resource.org/cc/"
   xmlns:rdf="http://www.w3.org/1999/02/22-rdf-syntax-ns#"
   xmlns:svg="http://www.w3.org/2000/svg"
   xmlns="http://www.w3.org/2000/svg"
   xmlns:xlink="http://www.w3.org/1999/xlink"
   xmlns:sodipodi="http://sodipodi.sourceforge.net/DTD/sodipodi-0.dtd"
   xmlns:inkscape="http://www.inkscape.org/namespaces/inkscape"
   height="247.88814"
   id="svg1"
   inkscape:version="0.45.1"
   sodipodi:docbase="C:\Documents and Settings\Ur-Quan Master\My Documents\Skole\2006-08 Master i Informasjonsteknologi - UiS\Prosjekt i datateknikk MID240 H-07\decs-report\images"
   sodipodi:docname="queens-4x4.svg"
   sodipodi:version="0.32"
   version="1.0"
   width="599.8559"
   x="0"
   y="0"
   inkscape:output_extension="org.inkscape.output.svg.inkscape">
  <metadata
     id="metadata3">
    <rdf:RDF>
      <cc:Work
         rdf:about="">
        <dc:title>Chess game</dc:title>
        <dc:description>Ideal for printing.</dc:description>
        <dc:subject>
          <rdf:Bag>
            <rdf:li />
            <rdf:li>game</rdf:li>
            <rdf:li>recreation</rdf:li>
          </rdf:Bag>
        </dc:subject>
        <dc:publisher>
          <cc:Agent
             rdf:about="http://www.openclipart.org">
            <dc:title>Jose Hevia</dc:title>
          </cc:Agent>
        </dc:publisher>
        <dc:creator>
          <cc:Agent>
            <dc:title>Jose Hevia</dc:title>
          </cc:Agent>
        </dc:creator>
        <dc:rights>
          <cc:Agent>
            <dc:title>Jose Hevia</dc:title>
          </cc:Agent>
        </dc:rights>
        <dc:date />
        <dc:format>image/svg+xml</dc:format>
        <dc:type
           rdf:resource="http://purl.org/dc/dcmitype/StillImage" />
        <cc:license
           rdf:resource="http://web.resource.org/cc/PublicDomain" />
        <dc:language>en</dc:language>
      </cc:Work>
      <cc:License
         rdf:about="http://web.resource.org/cc/PublicDomain">
        <cc:permits
           rdf:resource="http://web.resource.org/cc/Reproduction" />
        <cc:permits
           rdf:resource="http://web.resource.org/cc/Distribution" />
        <cc:permits
           rdf:resource="http://web.resource.org/cc/DerivativeWorks" />
      </cc:License>
    </rdf:RDF>
  </metadata>
  <sodipodi:namedview
     bordercolor="#666666"
     borderopacity="1.0"
     id="base"
     inkscape:cx="460.45935"
     inkscape:cy="167.9857"
     inkscape:pageopacity="0.0"
     inkscape:pageshadow="2"
     inkscape:window-height="1114"
     inkscape:window-width="1920"
     inkscape:window-x="-4"
     inkscape:window-y="-4"
     inkscape:zoom="1"
     pagecolor="#ffffff"
     inkscape:current-layer="svg1"
     inkscape:document-units="pt"
     width="479.88472pt"
     height="198.31051pt"
     units="pt"
     showborder="false"
     borderlayer="false" />
  <defs
     id="defs3">
    <linearGradient
       id="linearGradient573">
      <stop
         id="stop574"
         offset="0"
         style="stop-color:#ffff00;stop-opacity:1;" />
      <stop
         id="stop575"
         offset="1"
         style="stop-color:#85b200;stop-opacity:1;" />
    </linearGradient>
    <linearGradient
       id="linearGradient51">
      <stop
         id="stop52"
         offset="0"
         style="stop-color:#000000;stop-opacity:0.5608;" />
      <stop
         id="stop53"
         offset="1"
         style="stop-color:#000000;stop-opacity:0.1451;" />
    </linearGradient>
    <linearGradient
       id="linearGradient54"
       x1="-3.836925e-009"
       x2="1"
       xlink:href="#linearGradient573"
       y1="5.3733031e-009"
       y2="5.3733031e-009" />
    <linearGradient
       id="linearGradient55"
       x1="0.37854901"
       x2="0.70977902"
       xlink:href="#linearGradient51"
       y1="-0.03124713"
       y2="0.76562601" />
    <radialGradient
       id="radialGradient717"
       xlink:href="#linearGradient51" />
    <radialGradient
       cx="0.5"
       cy="0.5"
       fx="0.5"
       fy="0.5"
       id="radialGradient718"
       r="0.5"
       xlink:href="#linearGradient51" />
  </defs>
  <rect
     style="fill:#000000;fill-opacity:1;stroke:none;stroke-width:0.93547189;stroke-opacity:1"
     id="rect3994"
     width="225"
     height="225"
     x="21.525784"
     y="1.2500001" />
  <g
     id="g2878"
     transform="translate(4.191787e-2,-225.00001)">
    <path
       d="M 21.483867,338.75 L 21.483867,395 L 77.733867,395 L 77.733867,338.75 L 21.483867,338.75 z "
       id="path3978"
       style="font-size:12px;fill:#ffffff;fill-opacity:1;fill-rule:evenodd" />
    <path
       d="M 77.733867,395 L 77.733867,451.25 L 133.98387,451.25 L 133.98387,395 L 77.733867,395 z "
       id="path4028"
       style="font-size:12px;fill:#ffffff;fill-opacity:1;fill-rule:evenodd" />
    <path
       d="M 133.98387,338.75 L 133.98387,395 L 190.23386,395 L 190.23386,338.75 L 133.98387,338.75 z "
       id="path4032"
       style="font-size:12px;fill:#ffffff;fill-opacity:1;fill-rule:evenodd" />
    <path
       d="M 190.23386,395 L 190.23386,451.25 L 246.48386,451.25 L 246.48386,395 L 190.23386,395 z "
       id="path4034"
       style="font-size:12px;fill:#ffffff;fill-opacity:1;fill-rule:evenodd" />
    <path
       d="M 21.483867,226.25 L 21.483867,282.5 L 77.733867,282.5 L 77.733867,226.25 L 21.483867,226.25 z "
       id="path4044"
       style="font-size:12px;fill:#ffffff;fill-opacity:1;fill-rule:evenodd" />
    <path
       d="M 77.733867,282.5 L 77.733867,338.75 L 133.98387,338.75 L 133.98387,282.5 L 77.733867,282.5 z "
       id="path4046"
       style="font-size:12px;fill:#ffffff;fill-opacity:1;fill-rule:evenodd" />
    <path
       d="M 133.98387,226.25 L 133.98387,282.5 L 190.23386,282.5 L 190.23386,226.25 L 133.98387,226.25 z "
       id="path4048"
       style="font-size:12px;fill:#ffffff;fill-opacity:1;fill-rule:evenodd" />
    <path
       d="M 190.23386,282.5 L 190.23386,338.75 L 246.48386,338.75 L 246.48386,282.5 L 190.23386,282.5 z "
       id="path4050"
       style="font-size:12px;fill:#ffffff;fill-opacity:1;fill-rule:evenodd" />
  </g>
  <g
     id="g966"
     style="font-size:12px"
     transform="translate(186.31312,-386.23109)">
    <path
       d="M 48.75217,490.3264 C 49.10267,486.8233 48.92737,481.0151 49.10267,480.7232 L 53.26577,462.9538 L 43.14457,472.6046 L 40.94107,451.4021 L 32.00157,470.0491 L 21.54727,451.6385 L 21.10167,472.631 C 16.79317,468.9396 14.81737,466.5385 9.951273,462.8165 L 14.88807,480.8113 C 15.80677,485.1624 15.06327,487.3095 15.06327,490.0828 C 19.44427,492.1262 22.07737,494.3843 31.88647,494.4134 C 40.63887,494.2739 44.89677,492.5158 48.75217,490.3264 z "
       id="path950"
       style="fill:#ffffff;fill-opacity:1;fill-rule:evenodd;stroke:#000000;stroke-width:1.25;stroke-linejoin:round" />
    <path
       d="M 14.92247,489.7087 C 17.15297,487.7414 23.59647,484.9018 31.52697,485.1204 C 39.45747,484.9018 46.39667,487.0877 48.62707,489.2734 C 48.87497,485.2512 48.87487,483.2116 48.87497,480.5886 C 45.65317,477.5285 40.69667,475.9399 31.52697,475.7212 C 22.32727,475.7212 18.63997,477.6885 15.17027,480.3116 C 14.67467,483.1531 15.41807,484.6814 14.92247,489.7087 z "
       id="path951"
       style="fill:#ffffff;fill-opacity:1;fill-rule:evenodd;stroke:#000000;stroke-width:1.25;stroke-linejoin:round" />
    <ellipse
       cx="-8.2364426"
       cy="279.60565"
       id="path961"
       rx="3.6801128"
       ry="3.6801147"
       style="fill:#ffffff;fill-opacity:1;fill-rule:evenodd;stroke:#000000;stroke-width:1.92949998"
       transform="matrix(0.666667,0,0,0.629569,27.08877,274.4356)"
       sodipodi:cx="-8.2364426"
       sodipodi:cy="279.60565"
       sodipodi:rx="3.6801128"
       sodipodi:ry="3.6801147" />
    <ellipse
       cx="-8.2364426"
       cy="279.60565"
       id="path962"
       rx="3.6801128"
       ry="3.6801147"
       style="fill:#ffffff;fill-opacity:1;fill-rule:evenodd;stroke:#000000;stroke-width:1.92949998"
       transform="matrix(0.666667,0,0,0.629569,15.52267,285.8546)"
       sodipodi:cx="-8.2364426"
       sodipodi:cy="279.60565"
       sodipodi:rx="3.6801128"
       sodipodi:ry="3.6801147" />
    <ellipse
       cx="-8.2364426"
       cy="279.60565"
       id="path963"
       rx="3.6801128"
       ry="3.6801147"
       style="fill:#ffffff;fill-opacity:1;fill-rule:evenodd;stroke:#000000;stroke-width:1.92949998"
       transform="matrix(0,-0.629569,0.666668,0,-145.2667,445.364)"
       sodipodi:cx="-8.2364426"
       sodipodi:cy="279.60565"
       sodipodi:rx="3.6801128"
       sodipodi:ry="3.6801147" />
    <ellipse
       cx="-8.2364426"
       cy="279.60565"
       id="path964"
       rx="3.6801128"
       ry="3.6801147"
       style="fill:#ffffff;fill-opacity:1;fill-rule:evenodd;stroke:#000000;stroke-width:1.92949998"
       transform="matrix(0,-0.629569,0.666668,0,-133.1747,456.2866)"
       sodipodi:cx="-8.2364426"
       sodipodi:cy="279.60565"
       sodipodi:rx="3.6801128"
       sodipodi:ry="3.6801147" />
  </g>
  <rect
     style="fill:none;fill-opacity:1;stroke:#000000;stroke-width:1.24658024;stroke-linejoin:round;stroke-miterlimit:4;stroke-dasharray:none;stroke-opacity:1"
     id="rect6147"
     width="226.25342"
     height="226.25342"
     x="20.899075"
     y="0.6232903" />
  <g
     id="g10025"
     style="font-size:12px"
     transform="translate(129.83467,-272.44931)">
    <path
       d="M 48.75217,490.3264 C 49.10267,486.8233 48.92737,481.0151 49.10267,480.7232 L 53.26577,462.9538 L 43.14457,472.6046 L 40.94107,451.4021 L 32.00157,470.0491 L 21.54727,451.6385 L 21.10167,472.631 C 16.79317,468.9396 14.81737,466.5385 9.951273,462.8165 L 14.88807,480.8113 C 15.80677,485.1624 15.06327,487.3095 15.06327,490.0828 C 19.44427,492.1262 22.07737,494.3843 31.88647,494.4134 C 40.63887,494.2739 44.89677,492.5158 48.75217,490.3264 z "
       id="path10027"
       style="fill:#ffffff;fill-opacity:1;fill-rule:evenodd;stroke:#000000;stroke-width:1.25;stroke-linejoin:round" />
    <path
       d="M 14.92247,489.7087 C 17.15297,487.7414 23.59647,484.9018 31.52697,485.1204 C 39.45747,484.9018 46.39667,487.0877 48.62707,489.2734 C 48.87497,485.2512 48.87487,483.2116 48.87497,480.5886 C 45.65317,477.5285 40.69667,475.9399 31.52697,475.7212 C 22.32727,475.7212 18.63997,477.6885 15.17027,480.3116 C 14.67467,483.1531 15.41807,484.6814 14.92247,489.7087 z "
       id="path10029"
       style="fill:#ffffff;fill-opacity:1;fill-rule:evenodd;stroke:#000000;stroke-width:1.25;stroke-linejoin:round" />
    <ellipse
       cx="-8.2364426"
       cy="279.60565"
       id="ellipse10031"
       rx="3.6801128"
       ry="3.6801147"
       style="fill:#ffffff;fill-opacity:1;fill-rule:evenodd;stroke:#000000;stroke-width:1.92949998"
       transform="matrix(0.666667,0,0,0.629569,27.08877,274.4356)"
       sodipodi:cx="-8.2364426"
       sodipodi:cy="279.60565"
       sodipodi:rx="3.6801128"
       sodipodi:ry="3.6801147" />
    <ellipse
       cx="-8.2364426"
       cy="279.60565"
       id="ellipse10033"
       rx="3.6801128"
       ry="3.6801147"
       style="fill:#ffffff;fill-opacity:1;fill-rule:evenodd;stroke:#000000;stroke-width:1.92949998"
       transform="matrix(0.666667,0,0,0.629569,15.52267,285.8546)"
       sodipodi:cx="-8.2364426"
       sodipodi:cy="279.60565"
       sodipodi:rx="3.6801128"
       sodipodi:ry="3.6801147" />
    <ellipse
       cx="-8.2364426"
       cy="279.60565"
       id="ellipse10035"
       rx="3.6801128"
       ry="3.6801147"
       style="fill:#ffffff;fill-opacity:1;fill-rule:evenodd;stroke:#000000;stroke-width:1.92949998"
       transform="matrix(0,-0.629569,0.666668,0,-145.2667,445.364)"
       sodipodi:cx="-8.2364426"
       sodipodi:cy="279.60565"
       sodipodi:rx="3.6801128"
       sodipodi:ry="3.6801147" />
    <ellipse
       cx="-8.2364426"
       cy="279.60565"
       id="ellipse10037"
       rx="3.6801128"
       ry="3.6801147"
       style="fill:#ffffff;fill-opacity:1;fill-rule:evenodd;stroke:#000000;stroke-width:1.92949998"
       transform="matrix(0,-0.629569,0.666668,0,-133.1747,456.2866)"
       sodipodi:cx="-8.2364426"
       sodipodi:cy="279.60565"
       sodipodi:rx="3.6801128"
       sodipodi:ry="3.6801147" />
  </g>
  <g
     id="g10095"
     style="font-size:12px"
     transform="translate(16.877785,-329.3402)">
    <path
       d="M 48.75217,490.3264 C 49.10267,486.8233 48.92737,481.0151 49.10267,480.7232 L 53.26577,462.9538 L 43.14457,472.6046 L 40.94107,451.4021 L 32.00157,470.0491 L 21.54727,451.6385 L 21.10167,472.631 C 16.79317,468.9396 14.81737,466.5385 9.951273,462.8165 L 14.88807,480.8113 C 15.80677,485.1624 15.06327,487.3095 15.06327,490.0828 C 19.44427,492.1262 22.07737,494.3843 31.88647,494.4134 C 40.63887,494.2739 44.89677,492.5158 48.75217,490.3264 z "
       id="path10097"
       style="fill:#ffffff;fill-opacity:1;fill-rule:evenodd;stroke:#000000;stroke-width:1.25;stroke-linejoin:round" />
    <path
       d="M 14.92247,489.7087 C 17.15297,487.7414 23.59647,484.9018 31.52697,485.1204 C 39.45747,484.9018 46.39667,487.0877 48.62707,489.2734 C 48.87497,485.2512 48.87487,483.2116 48.87497,480.5886 C 45.65317,477.5285 40.69667,475.9399 31.52697,475.7212 C 22.32727,475.7212 18.63997,477.6885 15.17027,480.3116 C 14.67467,483.1531 15.41807,484.6814 14.92247,489.7087 z "
       id="path10099"
       style="fill:#ffffff;fill-opacity:1;fill-rule:evenodd;stroke:#000000;stroke-width:1.25;stroke-linejoin:round" />
    <ellipse
       cx="-8.2364426"
       cy="279.60565"
       id="ellipse10101"
       rx="3.6801128"
       ry="3.6801147"
       style="fill:#ffffff;fill-opacity:1;fill-rule:evenodd;stroke:#000000;stroke-width:1.92949998"
       transform="matrix(0.666667,0,0,0.629569,27.08877,274.4356)"
       sodipodi:cx="-8.2364426"
       sodipodi:cy="279.60565"
       sodipodi:rx="3.6801128"
       sodipodi:ry="3.6801147" />
    <ellipse
       cx="-8.2364426"
       cy="279.60565"
       id="ellipse10103"
       rx="3.6801128"
       ry="3.6801147"
       style="fill:#ffffff;fill-opacity:1;fill-rule:evenodd;stroke:#000000;stroke-width:1.92949998"
       transform="matrix(0.666667,0,0,0.629569,15.52267,285.8546)"
       sodipodi:cx="-8.2364426"
       sodipodi:cy="279.60565"
       sodipodi:rx="3.6801128"
       sodipodi:ry="3.6801147" />
    <ellipse
       cx="-8.2364426"
       cy="279.60565"
       id="ellipse10105"
       rx="3.6801128"
       ry="3.6801147"
       style="fill:#ffffff;fill-opacity:1;fill-rule:evenodd;stroke:#000000;stroke-width:1.92949998"
       transform="matrix(0,-0.629569,0.666668,0,-145.2667,445.364)"
       sodipodi:cx="-8.2364426"
       sodipodi:cy="279.60565"
       sodipodi:rx="3.6801128"
       sodipodi:ry="3.6801147" />
    <ellipse
       cx="-8.2364426"
       cy="279.60565"
       id="ellipse10107"
       rx="3.6801128"
       ry="3.6801147"
       style="fill:#ffffff;fill-opacity:1;fill-rule:evenodd;stroke:#000000;stroke-width:1.92949998"
       transform="matrix(0,-0.629569,0.666668,0,-133.1747,456.2866)"
       sodipodi:cx="-8.2364426"
       sodipodi:cy="279.60565"
       sodipodi:rx="3.6801128"
       sodipodi:ry="3.6801147" />
  </g>
  <g
     id="g10109"
     style="font-size:12px"
     transform="translate(73.356227,-443.12197)">
    <path
       d="M 48.75217,490.3264 C 49.10267,486.8233 48.92737,481.0151 49.10267,480.7232 L 53.26577,462.9538 L 43.14457,472.6046 L 40.94107,451.4021 L 32.00157,470.0491 L 21.54727,451.6385 L 21.10167,472.631 C 16.79317,468.9396 14.81737,466.5385 9.951273,462.8165 L 14.88807,480.8113 C 15.80677,485.1624 15.06327,487.3095 15.06327,490.0828 C 19.44427,492.1262 22.07737,494.3843 31.88647,494.4134 C 40.63887,494.2739 44.89677,492.5158 48.75217,490.3264 z "
       id="path10111"
       style="fill:#ffffff;fill-opacity:1;fill-rule:evenodd;stroke:#000000;stroke-width:1.25;stroke-linejoin:round" />
    <path
       d="M 14.92247,489.7087 C 17.15297,487.7414 23.59647,484.9018 31.52697,485.1204 C 39.45747,484.9018 46.39667,487.0877 48.62707,489.2734 C 48.87497,485.2512 48.87487,483.2116 48.87497,480.5886 C 45.65317,477.5285 40.69667,475.9399 31.52697,475.7212 C 22.32727,475.7212 18.63997,477.6885 15.17027,480.3116 C 14.67467,483.1531 15.41807,484.6814 14.92247,489.7087 z "
       id="path10113"
       style="fill:#ffffff;fill-opacity:1;fill-rule:evenodd;stroke:#000000;stroke-width:1.25;stroke-linejoin:round" />
    <ellipse
       cx="-8.2364426"
       cy="279.60565"
       id="ellipse10115"
       rx="3.6801128"
       ry="3.6801147"
       style="fill:#ffffff;fill-opacity:1;fill-rule:evenodd;stroke:#000000;stroke-width:1.92949998"
       transform="matrix(0.666667,0,0,0.629569,27.08877,274.4356)"
       sodipodi:cx="-8.2364426"
       sodipodi:cy="279.60565"
       sodipodi:rx="3.6801128"
       sodipodi:ry="3.6801147" />
    <ellipse
       cx="-8.2364426"
       cy="279.60565"
       id="ellipse10117"
       rx="3.6801128"
       ry="3.6801147"
       style="fill:#ffffff;fill-opacity:1;fill-rule:evenodd;stroke:#000000;stroke-width:1.92949998"
       transform="matrix(0.666667,0,0,0.629569,15.52267,285.8546)"
       sodipodi:cx="-8.2364426"
       sodipodi:cy="279.60565"
       sodipodi:rx="3.6801128"
       sodipodi:ry="3.6801147" />
    <ellipse
       cx="-8.2364426"
       cy="279.60565"
       id="ellipse10119"
       rx="3.6801128"
       ry="3.6801147"
       style="fill:#ffffff;fill-opacity:1;fill-rule:evenodd;stroke:#000000;stroke-width:1.92949998"
       transform="matrix(0,-0.629569,0.666668,0,-145.2667,445.364)"
       sodipodi:cx="-8.2364426"
       sodipodi:cy="279.60565"
       sodipodi:rx="3.6801128"
       sodipodi:ry="3.6801147" />
    <ellipse
       cx="-8.2364426"
       cy="279.60565"
       id="ellipse10121"
       rx="3.6801128"
       ry="3.6801147"
       style="fill:#ffffff;fill-opacity:1;fill-rule:evenodd;stroke:#000000;stroke-width:1.92949998"
       transform="matrix(0,-0.629569,0.666668,0,-133.1747,456.2866)"
       sodipodi:cx="-8.2364426"
       sodipodi:cy="279.60565"
       sodipodi:rx="3.6801128"
       sodipodi:ry="3.6801147" />
  </g>
  <flowRoot
     xml:space="preserve"
     id="flowRoot11100"
     style="text-align:center;text-anchor:middle"
     transform="translate(20.233867,-225.90927)"><flowRegion
       id="flowRegion11102"><rect
         id="rect11104"
         width="57.982758"
         height="33.941124"
         x="-0.70710677"
         y="457.44974"
         style="text-align:center;text-anchor:middle" /></flowRegion><flowPara
       id="flowPara11106"
       style="font-size:20px">A</flowPara></flowRoot>  <flowRoot
     xml:space="preserve"
     id="flowRoot11116"
     style="font-size:20px;text-align:center;text-anchor:middle"
     transform="translate(19.810458,-225.22177)"><flowRegion
       id="flowRegion11118"><rect
         id="rect11120"
         width="56.568542"
         height="27.577164"
         x="56.568542"
         y="456.74265"
         style="font-size:20px;text-align:center;text-anchor:middle" /></flowRegion><flowPara
       id="flowPara11122">B</flowPara></flowRoot>  <flowRoot
     xml:space="preserve"
     id="flowRoot11124"
     style="font-size:20px;text-align:center;text-anchor:middle"
     transform="translate(19.558925,-225.64559)"><flowRegion
       id="flowRegion11126"><rect
         id="rect11128"
         width="55.861435"
         height="28.284271"
         x="113.84419"
         y="457.44974"
         style="font-size:20px;text-align:center;text-anchor:middle" /></flowRegion><flowPara
       id="flowPara11130">C</flowPara></flowRoot>  <flowRoot
     xml:space="preserve"
     id="flowRoot11132"
     style="font-size:20px;text-align:center;text-anchor:middle"
     transform="translate(20.434344,-225.22177)"><flowRegion
       id="flowRegion11134"><rect
         id="rect11136"
         width="55.861435"
         height="33.23402"
         x="168.99852"
         y="456.74265"
         style="font-size:20px;text-align:center;text-anchor:middle" /></flowRegion><flowPara
       id="flowPara11138">D</flowPara></flowRoot>  <flowRoot
     xml:space="preserve"
     id="flowRoot11204"
     style="font-size:20px;text-align:center;writing-mode:tb-rl;text-anchor:middle"
     transform="translate(20.233867,-224.51864)"><flowRegion
       id="flowRegion11206"><rect
         id="rect11208"
         width="56.568542"
         height="56.568542"
         x="-62.225395"
         y="225.51872"
         style="font-size:20px;text-align:center;writing-mode:tb-rl;text-anchor:middle" /></flowRegion><flowPara
       id="flowPara11210">4</flowPara></flowRoot>  <flowRoot
     xml:space="preserve"
     id="flowRoot11212"
     style="font-size:20px;text-align:center;writing-mode:tb-rl;text-anchor:middle"
     transform="translate(20.199687,-223.97177)"><flowRegion
       id="flowRegion11214"><rect
         id="rect11216"
         width="66.46804"
         height="55.154327"
         x="-72.124893"
         y="282.08728"
         style="font-size:20px;text-align:center;writing-mode:tb-rl;text-anchor:middle" /></flowRegion><flowPara
       id="flowPara11218">3</flowPara></flowRoot>  <flowRoot
     xml:space="preserve"
     id="flowRoot11220"
     style="font-size:20px;text-align:center;writing-mode:tb-rl;text-anchor:middle"
     transform="translate(19.710429,-223.97665)"><flowRegion
       id="flowRegion11222"><rect
         id="rect11224"
         width="70.710678"
         height="56.568542"
         x="-75.660423"
         y="337.9487"
         style="font-size:20px;text-align:center;writing-mode:tb-rl;text-anchor:middle" /></flowRegion><flowPara
       id="flowPara11226">2</flowPara></flowRoot>  <flowRoot
     xml:space="preserve"
     id="flowRoot11228"
     style="font-size:20px;text-align:center;writing-mode:tb-rl;text-anchor:middle"
     transform="translate(19.266093,-224.9581)"><flowRegion
       id="flowRegion11230"><rect
         id="rect11232"
         width="71.417786"
         height="56.568542"
         x="-76.367531"
         y="395.22437"
         style="font-size:20px;text-align:center;writing-mode:tb-rl;text-anchor:middle" /></flowRegion><flowPara
       id="flowPara11234">1</flowPara></flowRoot>  <rect
     style="fill:#000000;fill-opacity:1;stroke:none;stroke-width:0.93547189;stroke-opacity:1"
     id="rect4826"
     width="225"
     height="225"
     x="373.60593"
     y="1.249999" />
  <g
     id="g4828"
     transform="translate(352.12206,-225)">
    <path
       d="M 21.483867,338.75 L 21.483867,395 L 77.733867,395 L 77.733867,338.75 L 21.483867,338.75 z "
       id="path4830"
       style="font-size:12px;fill:#ffffff;fill-opacity:1;fill-rule:evenodd" />
    <path
       d="M 77.733867,395 L 77.733867,451.25 L 133.98387,451.25 L 133.98387,395 L 77.733867,395 z "
       id="path4832"
       style="font-size:12px;fill:#ffffff;fill-opacity:1;fill-rule:evenodd" />
    <path
       d="M 133.98387,338.75 L 133.98387,395 L 190.23386,395 L 190.23386,338.75 L 133.98387,338.75 z "
       id="path4834"
       style="font-size:12px;fill:#ffffff;fill-opacity:1;fill-rule:evenodd" />
    <path
       d="M 190.23386,395 L 190.23386,451.25 L 246.48386,451.25 L 246.48386,395 L 190.23386,395 z "
       id="path4836"
       style="font-size:12px;fill:#ffffff;fill-opacity:1;fill-rule:evenodd" />
    <path
       d="M 21.483867,226.25 L 21.483867,282.5 L 77.733867,282.5 L 77.733867,226.25 L 21.483867,226.25 z "
       id="path4838"
       style="font-size:12px;fill:#ffffff;fill-opacity:1;fill-rule:evenodd" />
    <path
       d="M 77.733867,282.5 L 77.733867,338.75 L 133.98387,338.75 L 133.98387,282.5 L 77.733867,282.5 z "
       id="path4840"
       style="font-size:12px;fill:#ffffff;fill-opacity:1;fill-rule:evenodd" />
    <path
       d="M 133.98387,226.25 L 133.98387,282.5 L 190.23386,282.5 L 190.23386,226.25 L 133.98387,226.25 z "
       id="path4842"
       style="font-size:12px;fill:#ffffff;fill-opacity:1;fill-rule:evenodd" />
    <path
       d="M 190.23386,282.5 L 190.23386,338.75 L 246.48386,338.75 L 246.48386,282.5 L 190.23386,282.5 z "
       id="path4844"
       style="font-size:12px;fill:#ffffff;fill-opacity:1;fill-rule:evenodd" />
  </g>
  <g
     id="g4846"
     style="font-size:12px"
     transform="translate(539.10037,-330.28301)">
    <path
       d="M 48.75217,490.3264 C 49.10267,486.8233 48.92737,481.0151 49.10267,480.7232 L 53.26577,462.9538 L 43.14457,472.6046 L 40.94107,451.4021 L 32.00157,470.0491 L 21.54727,451.6385 L 21.10167,472.631 C 16.79317,468.9396 14.81737,466.5385 9.951273,462.8165 L 14.88807,480.8113 C 15.80677,485.1624 15.06327,487.3095 15.06327,490.0828 C 19.44427,492.1262 22.07737,494.3843 31.88647,494.4134 C 40.63887,494.2739 44.89677,492.5158 48.75217,490.3264 z "
       id="path4848"
       style="fill:#ffffff;fill-opacity:1;fill-rule:evenodd;stroke:#000000;stroke-width:1.25;stroke-linejoin:round" />
    <path
       d="M 14.92247,489.7087 C 17.15297,487.7414 23.59647,484.9018 31.52697,485.1204 C 39.45747,484.9018 46.39667,487.0877 48.62707,489.2734 C 48.87497,485.2512 48.87487,483.2116 48.87497,480.5886 C 45.65317,477.5285 40.69667,475.9399 31.52697,475.7212 C 22.32727,475.7212 18.63997,477.6885 15.17027,480.3116 C 14.67467,483.1531 15.41807,484.6814 14.92247,489.7087 z "
       id="path4850"
       style="fill:#ffffff;fill-opacity:1;fill-rule:evenodd;stroke:#000000;stroke-width:1.25;stroke-linejoin:round" />
    <ellipse
       cx="-8.2364426"
       cy="279.60565"
       id="ellipse4852"
       rx="3.6801128"
       ry="3.6801147"
       style="fill:#ffffff;fill-opacity:1;fill-rule:evenodd;stroke:#000000;stroke-width:1.92949998"
       transform="matrix(0.666667,0,0,0.629569,27.08877,274.4356)"
       sodipodi:cx="-8.2364426"
       sodipodi:cy="279.60565"
       sodipodi:rx="3.6801128"
       sodipodi:ry="3.6801147" />
    <ellipse
       cx="-8.2364426"
       cy="279.60565"
       id="ellipse4854"
       rx="3.6801128"
       ry="3.6801147"
       style="fill:#ffffff;fill-opacity:1;fill-rule:evenodd;stroke:#000000;stroke-width:1.92949998"
       transform="matrix(0.666667,0,0,0.629569,15.52267,285.8546)"
       sodipodi:cx="-8.2364426"
       sodipodi:cy="279.60565"
       sodipodi:rx="3.6801128"
       sodipodi:ry="3.6801147" />
    <ellipse
       cx="-8.2364426"
       cy="279.60565"
       id="ellipse4856"
       rx="3.6801128"
       ry="3.6801147"
       style="fill:#ffffff;fill-opacity:1;fill-rule:evenodd;stroke:#000000;stroke-width:1.92949998"
       transform="matrix(0,-0.629569,0.666668,0,-145.2667,445.364)"
       sodipodi:cx="-8.2364426"
       sodipodi:cy="279.60565"
       sodipodi:rx="3.6801128"
       sodipodi:ry="3.6801147" />
    <ellipse
       cx="-8.2364426"
       cy="279.60565"
       id="ellipse4858"
       rx="3.6801128"
       ry="3.6801147"
       style="fill:#ffffff;fill-opacity:1;fill-rule:evenodd;stroke:#000000;stroke-width:1.92949998"
       transform="matrix(0,-0.629569,0.666668,0,-133.1747,456.2866)"
       sodipodi:cx="-8.2364426"
       sodipodi:cy="279.60565"
       sodipodi:rx="3.6801128"
       sodipodi:ry="3.6801147" />
  </g>
  <rect
     style="fill:none;fill-opacity:1;stroke:#000000;stroke-width:1.24658024;stroke-linejoin:round;stroke-miterlimit:4;stroke-dasharray:none;stroke-opacity:1"
     id="rect4860"
     width="226.25342"
     height="226.25342"
     x="372.97922"
     y="0.62329012" />
  <g
     id="g4862"
     style="font-size:12px"
     transform="translate(426.14347,-273.86353)">
    <path
       d="M 48.75217,490.3264 C 49.10267,486.8233 48.92737,481.0151 49.10267,480.7232 L 53.26577,462.9538 L 43.14457,472.6046 L 40.94107,451.4021 L 32.00157,470.0491 L 21.54727,451.6385 L 21.10167,472.631 C 16.79317,468.9396 14.81737,466.5385 9.951273,462.8165 L 14.88807,480.8113 C 15.80677,485.1624 15.06327,487.3095 15.06327,490.0828 C 19.44427,492.1262 22.07737,494.3843 31.88647,494.4134 C 40.63887,494.2739 44.89677,492.5158 48.75217,490.3264 z "
       id="path4864"
       style="fill:#ffffff;fill-opacity:1;fill-rule:evenodd;stroke:#000000;stroke-width:1.25;stroke-linejoin:round" />
    <path
       d="M 14.92247,489.7087 C 17.15297,487.7414 23.59647,484.9018 31.52697,485.1204 C 39.45747,484.9018 46.39667,487.0877 48.62707,489.2734 C 48.87497,485.2512 48.87487,483.2116 48.87497,480.5886 C 45.65317,477.5285 40.69667,475.9399 31.52697,475.7212 C 22.32727,475.7212 18.63997,477.6885 15.17027,480.3116 C 14.67467,483.1531 15.41807,484.6814 14.92247,489.7087 z "
       id="path4866"
       style="fill:#ffffff;fill-opacity:1;fill-rule:evenodd;stroke:#000000;stroke-width:1.25;stroke-linejoin:round" />
    <ellipse
       cx="-8.2364426"
       cy="279.60565"
       id="ellipse4868"
       rx="3.6801128"
       ry="3.6801147"
       style="fill:#ffffff;fill-opacity:1;fill-rule:evenodd;stroke:#000000;stroke-width:1.92949998"
       transform="matrix(0.666667,0,0,0.629569,27.08877,274.4356)"
       sodipodi:cx="-8.2364426"
       sodipodi:cy="279.60565"
       sodipodi:rx="3.6801128"
       sodipodi:ry="3.6801147" />
    <ellipse
       cx="-8.2364426"
       cy="279.60565"
       id="ellipse4870"
       rx="3.6801128"
       ry="3.6801147"
       style="fill:#ffffff;fill-opacity:1;fill-rule:evenodd;stroke:#000000;stroke-width:1.92949998"
       transform="matrix(0.666667,0,0,0.629569,15.52267,285.8546)"
       sodipodi:cx="-8.2364426"
       sodipodi:cy="279.60565"
       sodipodi:rx="3.6801128"
       sodipodi:ry="3.6801147" />
    <ellipse
       cx="-8.2364426"
       cy="279.60565"
       id="ellipse4872"
       rx="3.6801128"
       ry="3.6801147"
       style="fill:#ffffff;fill-opacity:1;fill-rule:evenodd;stroke:#000000;stroke-width:1.92949998"
       transform="matrix(0,-0.629569,0.666668,0,-145.2667,445.364)"
       sodipodi:cx="-8.2364426"
       sodipodi:cy="279.60565"
       sodipodi:rx="3.6801128"
       sodipodi:ry="3.6801147" />
    <ellipse
       cx="-8.2364426"
       cy="279.60565"
       id="ellipse4874"
       rx="3.6801128"
       ry="3.6801147"
       style="fill:#ffffff;fill-opacity:1;fill-rule:evenodd;stroke:#000000;stroke-width:1.92949998"
       transform="matrix(0,-0.629569,0.666668,0,-133.1747,456.2866)"
       sodipodi:cx="-8.2364426"
       sodipodi:cy="279.60565"
       sodipodi:rx="3.6801128"
       sodipodi:ry="3.6801147" />
  </g>
  <g
     id="g4876"
     style="font-size:12px"
     transform="translate(369.66503,-386.70249)">
    <path
       d="M 48.75217,490.3264 C 49.10267,486.8233 48.92737,481.0151 49.10267,480.7232 L 53.26577,462.9538 L 43.14457,472.6046 L 40.94107,451.4021 L 32.00157,470.0491 L 21.54727,451.6385 L 21.10167,472.631 C 16.79317,468.9396 14.81737,466.5385 9.951273,462.8165 L 14.88807,480.8113 C 15.80677,485.1624 15.06327,487.3095 15.06327,490.0828 C 19.44427,492.1262 22.07737,494.3843 31.88647,494.4134 C 40.63887,494.2739 44.89677,492.5158 48.75217,490.3264 z "
       id="path4878"
       style="fill:#ffffff;fill-opacity:1;fill-rule:evenodd;stroke:#000000;stroke-width:1.25;stroke-linejoin:round" />
    <path
       d="M 14.92247,489.7087 C 17.15297,487.7414 23.59647,484.9018 31.52697,485.1204 C 39.45747,484.9018 46.39667,487.0877 48.62707,489.2734 C 48.87497,485.2512 48.87487,483.2116 48.87497,480.5886 C 45.65317,477.5285 40.69667,475.9399 31.52697,475.7212 C 22.32727,475.7212 18.63997,477.6885 15.17027,480.3116 C 14.67467,483.1531 15.41807,484.6814 14.92247,489.7087 z "
       id="path4880"
       style="fill:#ffffff;fill-opacity:1;fill-rule:evenodd;stroke:#000000;stroke-width:1.25;stroke-linejoin:round" />
    <ellipse
       cx="-8.2364426"
       cy="279.60565"
       id="ellipse4882"
       rx="3.6801128"
       ry="3.6801147"
       style="fill:#ffffff;fill-opacity:1;fill-rule:evenodd;stroke:#000000;stroke-width:1.92949998"
       transform="matrix(0.666667,0,0,0.629569,27.08877,274.4356)"
       sodipodi:cx="-8.2364426"
       sodipodi:cy="279.60565"
       sodipodi:rx="3.6801128"
       sodipodi:ry="3.6801147" />
    <ellipse
       cx="-8.2364426"
       cy="279.60565"
       id="ellipse4884"
       rx="3.6801128"
       ry="3.6801147"
       style="fill:#ffffff;fill-opacity:1;fill-rule:evenodd;stroke:#000000;stroke-width:1.92949998"
       transform="matrix(0.666667,0,0,0.629569,15.52267,285.8546)"
       sodipodi:cx="-8.2364426"
       sodipodi:cy="279.60565"
       sodipodi:rx="3.6801128"
       sodipodi:ry="3.6801147" />
    <ellipse
       cx="-8.2364426"
       cy="279.60565"
       id="ellipse4886"
       rx="3.6801128"
       ry="3.6801147"
       style="fill:#ffffff;fill-opacity:1;fill-rule:evenodd;stroke:#000000;stroke-width:1.92949998"
       transform="matrix(0,-0.629569,0.666668,0,-145.2667,445.364)"
       sodipodi:cx="-8.2364426"
       sodipodi:cy="279.60565"
       sodipodi:rx="3.6801128"
       sodipodi:ry="3.6801147" />
    <ellipse
       cx="-8.2364426"
       cy="279.60565"
       id="ellipse4888"
       rx="3.6801128"
       ry="3.6801147"
       style="fill:#ffffff;fill-opacity:1;fill-rule:evenodd;stroke:#000000;stroke-width:1.92949998"
       transform="matrix(0,-0.629569,0.666668,0,-133.1747,456.2866)"
       sodipodi:cx="-8.2364426"
       sodipodi:cy="279.60565"
       sodipodi:rx="3.6801128"
       sodipodi:ry="3.6801147" />
  </g>
  <g
     id="g4890"
     style="font-size:12px"
     transform="translate(482.62195,-443.12197)">
    <path
       d="M 48.75217,490.3264 C 49.10267,486.8233 48.92737,481.0151 49.10267,480.7232 L 53.26577,462.9538 L 43.14457,472.6046 L 40.94107,451.4021 L 32.00157,470.0491 L 21.54727,451.6385 L 21.10167,472.631 C 16.79317,468.9396 14.81737,466.5385 9.951273,462.8165 L 14.88807,480.8113 C 15.80677,485.1624 15.06327,487.3095 15.06327,490.0828 C 19.44427,492.1262 22.07737,494.3843 31.88647,494.4134 C 40.63887,494.2739 44.89677,492.5158 48.75217,490.3264 z "
       id="path4892"
       style="fill:#ffffff;fill-opacity:1;fill-rule:evenodd;stroke:#000000;stroke-width:1.25;stroke-linejoin:round" />
    <path
       d="M 14.92247,489.7087 C 17.15297,487.7414 23.59647,484.9018 31.52697,485.1204 C 39.45747,484.9018 46.39667,487.0877 48.62707,489.2734 C 48.87497,485.2512 48.87487,483.2116 48.87497,480.5886 C 45.65317,477.5285 40.69667,475.9399 31.52697,475.7212 C 22.32727,475.7212 18.63997,477.6885 15.17027,480.3116 C 14.67467,483.1531 15.41807,484.6814 14.92247,489.7087 z "
       id="path4894"
       style="fill:#ffffff;fill-opacity:1;fill-rule:evenodd;stroke:#000000;stroke-width:1.25;stroke-linejoin:round" />
    <ellipse
       cx="-8.2364426"
       cy="279.60565"
       id="ellipse4896"
       rx="3.6801128"
       ry="3.6801147"
       style="fill:#ffffff;fill-opacity:1;fill-rule:evenodd;stroke:#000000;stroke-width:1.92949998"
       transform="matrix(0.666667,0,0,0.629569,27.08877,274.4356)"
       sodipodi:cx="-8.2364426"
       sodipodi:cy="279.60565"
       sodipodi:rx="3.6801128"
       sodipodi:ry="3.6801147" />
    <ellipse
       cx="-8.2364426"
       cy="279.60565"
       id="ellipse4898"
       rx="3.6801128"
       ry="3.6801147"
       style="fill:#ffffff;fill-opacity:1;fill-rule:evenodd;stroke:#000000;stroke-width:1.92949998"
       transform="matrix(0.666667,0,0,0.629569,15.52267,285.8546)"
       sodipodi:cx="-8.2364426"
       sodipodi:cy="279.60565"
       sodipodi:rx="3.6801128"
       sodipodi:ry="3.6801147" />
    <ellipse
       cx="-8.2364426"
       cy="279.60565"
       id="ellipse4900"
       rx="3.6801128"
       ry="3.6801147"
       style="fill:#ffffff;fill-opacity:1;fill-rule:evenodd;stroke:#000000;stroke-width:1.92949998"
       transform="matrix(0,-0.629569,0.666668,0,-145.2667,445.364)"
       sodipodi:cx="-8.2364426"
       sodipodi:cy="279.60565"
       sodipodi:rx="3.6801128"
       sodipodi:ry="3.6801147" />
    <ellipse
       cx="-8.2364426"
       cy="279.60565"
       id="ellipse4902"
       rx="3.6801128"
       ry="3.6801147"
       style="fill:#ffffff;fill-opacity:1;fill-rule:evenodd;stroke:#000000;stroke-width:1.92949998"
       transform="matrix(0,-0.629569,0.666668,0,-133.1747,456.2866)"
       sodipodi:cx="-8.2364426"
       sodipodi:cy="279.60565"
       sodipodi:rx="3.6801128"
       sodipodi:ry="3.6801147" />
  </g>
  <flowRoot
     xml:space="preserve"
     id="flowRoot4904"
     style="text-align:center;text-anchor:middle"
     transform="translate(372.314,-225.90926)"><flowRegion
       id="flowRegion4906"><rect
         id="rect4908"
         width="57.982758"
         height="33.941124"
         x="-0.70710677"
         y="457.44974"
         style="text-align:center;text-anchor:middle" /></flowRegion><flowPara
       id="flowPara4910"
       style="font-size:20px">A</flowPara></flowRoot>  <flowRoot
     xml:space="preserve"
     id="flowRoot4912"
     style="font-size:20px;text-align:center;text-anchor:middle"
     transform="translate(371.8906,-225.22176)"><flowRegion
       id="flowRegion4914"><rect
         id="rect4916"
         width="56.568542"
         height="27.577164"
         x="56.568542"
         y="456.74265"
         style="font-size:20px;text-align:center;text-anchor:middle" /></flowRegion><flowPara
       id="flowPara4918">B</flowPara></flowRoot>  <flowRoot
     xml:space="preserve"
     id="flowRoot4920"
     style="font-size:20px;text-align:center;text-anchor:middle"
     transform="translate(371.63906,-225.64558)"><flowRegion
       id="flowRegion4922"><rect
         id="rect4924"
         width="55.861435"
         height="28.284271"
         x="113.84419"
         y="457.44974"
         style="font-size:20px;text-align:center;text-anchor:middle" /></flowRegion><flowPara
       id="flowPara4926">C</flowPara></flowRoot>  <flowRoot
     xml:space="preserve"
     id="flowRoot4928"
     style="font-size:20px;text-align:center;text-anchor:middle"
     transform="translate(372.51448,-225.22176)"><flowRegion
       id="flowRegion4930"><rect
         id="rect4932"
         width="55.861435"
         height="33.23402"
         x="168.99852"
         y="456.74265"
         style="font-size:20px;text-align:center;text-anchor:middle" /></flowRegion><flowPara
       id="flowPara4934">D</flowPara></flowRoot>  <flowRoot
     xml:space="preserve"
     id="flowRoot4936"
     style="font-size:20px;text-align:center;writing-mode:tb-rl;text-anchor:middle"
     transform="translate(372.314,-224.51863)"><flowRegion
       id="flowRegion4938"><rect
         id="rect4940"
         width="56.568542"
         height="56.568542"
         x="-62.225395"
         y="225.51872"
         style="font-size:20px;text-align:center;writing-mode:tb-rl;text-anchor:middle" /></flowRegion><flowPara
       id="flowPara4942">4</flowPara></flowRoot>  <flowRoot
     xml:space="preserve"
     id="flowRoot4944"
     style="font-size:20px;text-align:center;writing-mode:tb-rl;text-anchor:middle"
     transform="translate(372.27982,-223.97176)"><flowRegion
       id="flowRegion4946"><rect
         id="rect4948"
         width="66.46804"
         height="55.154327"
         x="-72.124893"
         y="282.08728"
         style="font-size:20px;text-align:center;writing-mode:tb-rl;text-anchor:middle" /></flowRegion><flowPara
       id="flowPara4950">3</flowPara></flowRoot>  <flowRoot
     xml:space="preserve"
     id="flowRoot4952"
     style="font-size:20px;text-align:center;writing-mode:tb-rl;text-anchor:middle"
     transform="translate(371.79057,-223.97664)"><flowRegion
       id="flowRegion4954"><rect
         id="rect4956"
         width="70.710678"
         height="56.568542"
         x="-75.660423"
         y="337.9487"
         style="font-size:20px;text-align:center;writing-mode:tb-rl;text-anchor:middle" /></flowRegion><flowPara
       id="flowPara4958">2</flowPara></flowRoot>  <flowRoot
     xml:space="preserve"
     id="flowRoot4960"
     style="font-size:20px;text-align:center;writing-mode:tb-rl;text-anchor:middle"
     transform="translate(371.34623,-224.95809)"><flowRegion
       id="flowRegion4962"><rect
         id="rect4964"
         width="71.417786"
         height="56.568542"
         x="-76.367531"
         y="395.22437"
         style="font-size:20px;text-align:center;writing-mode:tb-rl;text-anchor:middle" /></flowRegion><flowPara
       id="flowPara4966">1</flowPara></flowRoot></svg>
