<?xml version="1.0" encoding="UTF-8" standalone="no"?>
<!-- Created with Sodipodi ("http://www.sodipodi.com/") -->
<svg
   xmlns:dc="http://purl.org/dc/elements/1.1/"
   xmlns:cc="http://web.resource.org/cc/"
   xmlns:rdf="http://www.w3.org/1999/02/22-rdf-syntax-ns#"
   xmlns:svg="http://www.w3.org/2000/svg"
   xmlns="http://www.w3.org/2000/svg"
   xmlns:xlink="http://www.w3.org/1999/xlink"
   xmlns:sodipodi="http://sodipodi.sourceforge.net/DTD/sodipodi-0.dtd"
   xmlns:inkscape="http://www.inkscape.org/namespaces/inkscape"
   height="472.84622"
   id="svg1"
   inkscape:version="0.45.1"
   sodipodi:docbase="C:\Documents and Settings\Ur-Quan Master\My Documents\Skole\2006-08 Master i Informasjonsteknologi - UiS\Prosjekt i datateknikk MID240 H-07\decs-report\images"
   sodipodi:docname="queens-basic.svg"
   sodipodi:version="0.32"
   version="1.0"
   width="472.73398"
   x="0"
   y="0"
   inkscape:output_extension="org.inkscape.output.svg.inkscape">
  <metadata
     id="metadata3">
    <rdf:RDF>
      <cc:Work
         rdf:about="">
        <dc:title>Chess game</dc:title>
        <dc:description>Ideal for printing.</dc:description>
        <dc:subject>
          <rdf:Bag>
            <rdf:li />
            <rdf:li>game</rdf:li>
            <rdf:li>recreation</rdf:li>
          </rdf:Bag>
        </dc:subject>
        <dc:publisher>
          <cc:Agent
             rdf:about="http://www.openclipart.org">
            <dc:title>Jose Hevia</dc:title>
          </cc:Agent>
        </dc:publisher>
        <dc:creator>
          <cc:Agent>
            <dc:title>Jose Hevia</dc:title>
          </cc:Agent>
        </dc:creator>
        <dc:rights>
          <cc:Agent>
            <dc:title>Jose Hevia</dc:title>
          </cc:Agent>
        </dc:rights>
        <dc:date />
        <dc:format>image/svg+xml</dc:format>
        <dc:type
           rdf:resource="http://purl.org/dc/dcmitype/StillImage" />
        <cc:license
           rdf:resource="http://web.resource.org/cc/PublicDomain" />
        <dc:language>en</dc:language>
      </cc:Work>
      <cc:License
         rdf:about="http://web.resource.org/cc/PublicDomain">
        <cc:permits
           rdf:resource="http://web.resource.org/cc/Reproduction" />
        <cc:permits
           rdf:resource="http://web.resource.org/cc/Distribution" />
        <cc:permits
           rdf:resource="http://web.resource.org/cc/DerivativeWorks" />
      </cc:License>
    </rdf:RDF>
  </metadata>
  <sodipodi:namedview
     bordercolor="#666666"
     borderopacity="1.0"
     id="base"
     inkscape:cx="358.03598"
     inkscape:cy="187.79109"
     inkscape:pageopacity="0.0"
     inkscape:pageshadow="2"
     inkscape:window-height="1114"
     inkscape:window-width="1920"
     inkscape:window-x="0"
     inkscape:window-y="29"
     inkscape:zoom="1.4142136"
     pagecolor="#ffffff"
     inkscape:current-layer="svg1"
     inkscape:document-units="pt"
     width="350pt"
     height="350pt"
     units="pt"
     showborder="false"
     borderlayer="false" />
  <defs
     id="defs3">
    <linearGradient
       id="linearGradient573">
      <stop
         id="stop574"
         offset="0"
         style="stop-color:#ffff00;stop-opacity:1;" />
      <stop
         id="stop575"
         offset="1"
         style="stop-color:#85b200;stop-opacity:1;" />
    </linearGradient>
    <linearGradient
       id="linearGradient51">
      <stop
         id="stop52"
         offset="0"
         style="stop-color:#000000;stop-opacity:0.5608;" />
      <stop
         id="stop53"
         offset="1"
         style="stop-color:#000000;stop-opacity:0.1451;" />
    </linearGradient>
    <linearGradient
       id="linearGradient54"
       x1="-3.836925e-009"
       x2="1"
       xlink:href="#linearGradient573"
       y1="5.3733031e-009"
       y2="5.3733031e-009" />
    <linearGradient
       id="linearGradient55"
       x1="0.37854901"
       x2="0.70977902"
       xlink:href="#linearGradient51"
       y1="-0.03124713"
       y2="0.76562601" />
    <radialGradient
       id="radialGradient717"
       xlink:href="#linearGradient51" />
    <radialGradient
       cx="0.5"
       cy="0.5"
       fx="0.5"
       fy="0.5"
       id="radialGradient718"
       r="0.5"
       xlink:href="#linearGradient51" />
  </defs>
  <rect
     style="fill:#000000;fill-opacity:1;stroke:none;stroke-width:0.93547189;stroke-opacity:1"
     id="rect3994"
     width="450"
     height="450"
     x="21.483868"
     y="1.2500046" />
  <g
     id="g4092"
     transform="translate(21.483867,13.750004)">
    <path
       d="M 0,325 L 0,381.25 L 56.25,381.25 L 56.25,325 L 0,325 z "
       id="path3978"
       style="font-size:12px;fill:#ffffff;fill-opacity:1;fill-rule:evenodd" />
    <path
       d="M 56.25,381.25 L 56.25,437.5 L 112.5,437.5 L 112.5,381.25 L 56.25,381.25 z "
       id="path4028"
       style="font-size:12px;fill:#ffffff;fill-opacity:1;fill-rule:evenodd" />
    <path
       d="M 112.5,325 L 112.5,381.25 L 168.74999,381.25 L 168.74999,325 L 112.5,325 z "
       id="path4032"
       style="font-size:12px;fill:#ffffff;fill-opacity:1;fill-rule:evenodd" />
    <path
       d="M 168.74999,381.25 L 168.74999,437.5 L 224.99999,437.5 L 224.99999,381.25 L 168.74999,381.25 z "
       id="path4034"
       style="font-size:12px;fill:#ffffff;fill-opacity:1;fill-rule:evenodd" />
    <path
       d="M 225,325 L 225,381.25 L 281.25,381.25 L 281.25,325 L 225,325 z "
       id="path4036"
       style="font-size:12px;fill:#ffffff;fill-opacity:1;fill-rule:evenodd" />
    <path
       d="M 281.25,381.25 L 281.25,437.5 L 337.5,437.5 L 337.5,381.25 L 281.25,381.25 z "
       id="path4038"
       style="font-size:12px;fill:#ffffff;fill-opacity:1;fill-rule:evenodd" />
    <path
       d="M 337.5,325 L 337.5,381.25 L 393.74999,381.25 L 393.74999,325 L 337.5,325 z "
       id="path4040"
       style="font-size:12px;fill:#ffffff;fill-opacity:1;fill-rule:evenodd" />
    <path
       d="M 393.75,381.25 L 393.75,437.5 L 450,437.5 L 450,381.25 L 393.75,381.25 z "
       id="path4042"
       style="font-size:12px;fill:#ffffff;fill-opacity:1;fill-rule:evenodd" />
    <path
       d="M 0,212.5 L 0,268.75 L 56.25,268.75 L 56.25,212.5 L 0,212.5 z "
       id="path4044"
       style="font-size:12px;fill:#ffffff;fill-opacity:1;fill-rule:evenodd" />
    <path
       d="M 56.25,268.75 L 56.25,325 L 112.5,325 L 112.5,268.75 L 56.25,268.75 z "
       id="path4046"
       style="font-size:12px;fill:#ffffff;fill-opacity:1;fill-rule:evenodd" />
    <path
       d="M 112.5,212.5 L 112.5,268.75 L 168.74999,268.75 L 168.74999,212.5 L 112.5,212.5 z "
       id="path4048"
       style="font-size:12px;fill:#ffffff;fill-opacity:1;fill-rule:evenodd" />
    <path
       d="M 168.74999,268.75 L 168.74999,325 L 224.99999,325 L 224.99999,268.75 L 168.74999,268.75 z "
       id="path4050"
       style="font-size:12px;fill:#ffffff;fill-opacity:1;fill-rule:evenodd" />
    <path
       d="M 225,212.5 L 225,268.75 L 281.25,268.75 L 281.25,212.5 L 225,212.5 z "
       id="path4052"
       style="font-size:12px;fill:#ffffff;fill-opacity:1;fill-rule:evenodd" />
    <path
       d="M 281.25,268.75 L 281.25,325 L 337.5,325 L 337.5,268.75 L 281.25,268.75 z "
       id="path4054"
       style="font-size:12px;fill:#ffffff;fill-opacity:1;fill-rule:evenodd" />
    <path
       d="M 337.5,212.5 L 337.5,268.75 L 393.74999,268.75 L 393.74999,212.5 L 337.5,212.5 z "
       id="path4056"
       style="font-size:12px;fill:#ffffff;fill-opacity:1;fill-rule:evenodd" />
    <path
       d="M 393.75,268.75 L 393.75,325 L 450,325 L 450,268.75 L 393.75,268.75 z "
       id="path4058"
       style="font-size:12px;fill:#ffffff;fill-opacity:1;fill-rule:evenodd" />
    <path
       d="M 56.25,156.25 L 56.25,212.5 L 112.5,212.5 L 112.5,156.25 L 56.25,156.25 z "
       id="path4060"
       style="font-size:12px;fill:#ffffff;fill-opacity:1;fill-rule:evenodd" />
    <path
       d="M 112.5,100 L 112.5,156.25 L 168.74999,156.25 L 168.74999,100 L 112.5,100 z "
       id="path4062"
       style="font-size:12px;fill:#ffffff;fill-opacity:1;fill-rule:evenodd" />
    <path
       d="M 168.74999,156.25 L 168.74999,212.5 L 224.99999,212.5 L 224.99999,156.25 L 168.74999,156.25 z "
       id="path4064"
       style="font-size:12px;fill:#ffffff;fill-opacity:1;fill-rule:evenodd" />
    <path
       d="M 225,100 L 225,156.25 L 281.25,156.25 L 281.25,100 L 225,100 z "
       id="path4066"
       style="font-size:12px;fill:#ffffff;fill-opacity:1;fill-rule:evenodd" />
    <path
       d="M 281.25,156.25 L 281.25,212.5 L 337.5,212.5 L 337.5,156.25 L 281.25,156.25 z "
       id="path4068"
       style="font-size:12px;fill:#ffffff;fill-opacity:1;fill-rule:evenodd" />
    <path
       d="M 337.5,100 L 337.5,156.25 L 393.74999,156.25 L 393.74999,100 L 337.5,100 z "
       id="path4070"
       style="font-size:12px;fill:#ffffff;fill-opacity:1;fill-rule:evenodd" />
    <path
       d="M 393.75,156.25 L 393.75,212.5 L 450,212.5 L 450,156.25 L 393.75,156.25 z "
       id="path4072"
       style="font-size:12px;fill:#ffffff;fill-opacity:1;fill-rule:evenodd" />
    <path
       d="M 0,-12.499999 L 0,43.750001 L 56.25,43.750001 L 56.25,-12.499999 L 0,-12.499999 z "
       id="path4074"
       style="font-size:12px;fill:#ffffff;fill-opacity:1;fill-rule:evenodd" />
    <path
       d="M 56.25,43.750001 L 56.25,100 L 112.5,100 L 112.5,43.750001 L 56.25,43.750001 z "
       id="path4076"
       style="font-size:12px;fill:#ffffff;fill-opacity:1;fill-rule:evenodd" />
    <path
       d="M 112.5,-12.499999 L 112.5,43.750001 L 168.74999,43.750001 L 168.74999,-12.499999 L 112.5,-12.499999 z "
       id="path4078"
       style="font-size:12px;fill:#ffffff;fill-opacity:1;fill-rule:evenodd" />
    <path
       d="M 168.74999,43.750001 L 168.74999,100 L 224.99999,100 L 224.99999,43.750001 L 168.74999,43.750001 z "
       id="path4080"
       style="font-size:12px;fill:#ffffff;fill-opacity:1;fill-rule:evenodd" />
    <path
       d="M 225,-12.499999 L 225,43.750001 L 281.25,43.750001 L 281.25,-12.499999 L 225,-12.499999 z "
       id="path4082"
       style="font-size:12px;fill:#ffffff;fill-opacity:1;fill-rule:evenodd" />
    <path
       d="M 281.25,43.750001 L 281.25,100 L 337.5,100 L 337.5,43.750001 L 281.25,43.750001 z "
       id="path4084"
       style="font-size:12px;fill:#ffffff;fill-opacity:1;fill-rule:evenodd" />
    <path
       d="M 337.5,-12.499999 L 337.5,43.750001 L 393.74999,43.750001 L 393.74999,-12.499999 L 337.5,-12.499999 z "
       id="path4086"
       style="font-size:12px;fill:#ffffff;fill-opacity:1;fill-rule:evenodd" />
    <path
       d="M 393.75,43.750001 L 393.75,100 L 450,100 L 450,43.750001 L 393.75,43.750001 z "
       id="path4088"
       style="font-size:12px;fill:#ffffff;fill-opacity:1;fill-rule:evenodd" />
    <path
       d="M 0,100 L 0,156.25 L 56.25,156.25 L 56.25,100 L 0,100 z "
       id="path4090"
       style="font-size:12px;fill:#ffffff;fill-opacity:1;fill-rule:evenodd" />
  </g>
  <g
     id="g966"
     style="font-size:12px"
     transform="translate(17.38272,-217.5796)">
    <path
       d="M 48.75217,490.3264 C 49.10267,486.8233 48.92737,481.0151 49.10267,480.7232 L 53.26577,462.9538 L 43.14457,472.6046 L 40.94107,451.4021 L 32.00157,470.0491 L 21.54727,451.6385 L 21.10167,472.631 C 16.79317,468.9396 14.81737,466.5385 9.951273,462.8165 L 14.88807,480.8113 C 15.80677,485.1624 15.06327,487.3095 15.06327,490.0828 C 19.44427,492.1262 22.07737,494.3843 31.88647,494.4134 C 40.63887,494.2739 44.89677,492.5158 48.75217,490.3264 z "
       id="path950"
       style="fill:#ffffff;fill-opacity:1;fill-rule:evenodd;stroke:#000000;stroke-width:1.25;stroke-linejoin:round" />
    <path
       d="M 14.92247,489.7087 C 17.15297,487.7414 23.59647,484.9018 31.52697,485.1204 C 39.45747,484.9018 46.39667,487.0877 48.62707,489.2734 C 48.87497,485.2512 48.87487,483.2116 48.87497,480.5886 C 45.65317,477.5285 40.69667,475.9399 31.52697,475.7212 C 22.32727,475.7212 18.63997,477.6885 15.17027,480.3116 C 14.67467,483.1531 15.41807,484.6814 14.92247,489.7087 z "
       id="path951"
       style="fill:#ffffff;fill-opacity:1;fill-rule:evenodd;stroke:#000000;stroke-width:1.25;stroke-linejoin:round" />
    <ellipse
       cx="-8.2364426"
       cy="279.60565"
       id="path961"
       rx="3.6801128"
       ry="3.6801147"
       style="fill:#ffffff;fill-opacity:1;fill-rule:evenodd;stroke:#000000;stroke-width:1.92949998"
       transform="matrix(0.666667,0,0,0.629569,27.08877,274.4356)"
       sodipodi:cx="-8.2364426"
       sodipodi:cy="279.60565"
       sodipodi:rx="3.6801128"
       sodipodi:ry="3.6801147" />
    <ellipse
       cx="-8.2364426"
       cy="279.60565"
       id="path962"
       rx="3.6801128"
       ry="3.6801147"
       style="fill:#ffffff;fill-opacity:1;fill-rule:evenodd;stroke:#000000;stroke-width:1.92949998"
       transform="matrix(0.666667,0,0,0.629569,15.52267,285.8546)"
       sodipodi:cx="-8.2364426"
       sodipodi:cy="279.60565"
       sodipodi:rx="3.6801128"
       sodipodi:ry="3.6801147" />
    <ellipse
       cx="-8.2364426"
       cy="279.60565"
       id="path963"
       rx="3.6801128"
       ry="3.6801147"
       style="fill:#ffffff;fill-opacity:1;fill-rule:evenodd;stroke:#000000;stroke-width:1.92949998"
       transform="matrix(0,-0.629569,0.666668,0,-145.2667,445.364)"
       sodipodi:cx="-8.2364426"
       sodipodi:cy="279.60565"
       sodipodi:rx="3.6801128"
       sodipodi:ry="3.6801147" />
    <ellipse
       cx="-8.2364426"
       cy="279.60565"
       id="path964"
       rx="3.6801128"
       ry="3.6801147"
       style="fill:#ffffff;fill-opacity:1;fill-rule:evenodd;stroke:#000000;stroke-width:1.92949998"
       transform="matrix(0,-0.629569,0.666668,0,-133.1747,456.2866)"
       sodipodi:cx="-8.2364426"
       sodipodi:cy="279.60565"
       sodipodi:rx="3.6801128"
       sodipodi:ry="3.6801147" />
  </g>
  <rect
     style="fill:none;fill-opacity:1;stroke:#000000;stroke-width:1.24655616;stroke-linejoin:round;stroke-miterlimit:4;stroke-dasharray:none;stroke-opacity:1"
     id="rect6147"
     width="451.25354"
     height="451.25345"
     x="20.857145"
     y="0.62327808" />
  <g
     id="g10025"
     style="font-size:12px"
     transform="translate(298.86162,-48.480065)">
    <path
       d="M 48.75217,490.3264 C 49.10267,486.8233 48.92737,481.0151 49.10267,480.7232 L 53.26577,462.9538 L 43.14457,472.6046 L 40.94107,451.4021 L 32.00157,470.0491 L 21.54727,451.6385 L 21.10167,472.631 C 16.79317,468.9396 14.81737,466.5385 9.951273,462.8165 L 14.88807,480.8113 C 15.80677,485.1624 15.06327,487.3095 15.06327,490.0828 C 19.44427,492.1262 22.07737,494.3843 31.88647,494.4134 C 40.63887,494.2739 44.89677,492.5158 48.75217,490.3264 z "
       id="path10027"
       style="fill:#ffffff;fill-opacity:1;fill-rule:evenodd;stroke:#000000;stroke-width:1.25;stroke-linejoin:round" />
    <path
       d="M 14.92247,489.7087 C 17.15297,487.7414 23.59647,484.9018 31.52697,485.1204 C 39.45747,484.9018 46.39667,487.0877 48.62707,489.2734 C 48.87497,485.2512 48.87487,483.2116 48.87497,480.5886 C 45.65317,477.5285 40.69667,475.9399 31.52697,475.7212 C 22.32727,475.7212 18.63997,477.6885 15.17027,480.3116 C 14.67467,483.1531 15.41807,484.6814 14.92247,489.7087 z "
       id="path10029"
       style="fill:#ffffff;fill-opacity:1;fill-rule:evenodd;stroke:#000000;stroke-width:1.25;stroke-linejoin:round" />
    <ellipse
       cx="-8.2364426"
       cy="279.60565"
       id="ellipse10031"
       rx="3.6801128"
       ry="3.6801147"
       style="fill:#ffffff;fill-opacity:1;fill-rule:evenodd;stroke:#000000;stroke-width:1.92949998"
       transform="matrix(0.666667,0,0,0.629569,27.08877,274.4356)"
       sodipodi:cx="-8.2364426"
       sodipodi:cy="279.60565"
       sodipodi:rx="3.6801128"
       sodipodi:ry="3.6801147" />
    <ellipse
       cx="-8.2364426"
       cy="279.60565"
       id="ellipse10033"
       rx="3.6801128"
       ry="3.6801147"
       style="fill:#ffffff;fill-opacity:1;fill-rule:evenodd;stroke:#000000;stroke-width:1.92949998"
       transform="matrix(0.666667,0,0,0.629569,15.52267,285.8546)"
       sodipodi:cx="-8.2364426"
       sodipodi:cy="279.60565"
       sodipodi:rx="3.6801128"
       sodipodi:ry="3.6801147" />
    <ellipse
       cx="-8.2364426"
       cy="279.60565"
       id="ellipse10035"
       rx="3.6801128"
       ry="3.6801147"
       style="fill:#ffffff;fill-opacity:1;fill-rule:evenodd;stroke:#000000;stroke-width:1.92949998"
       transform="matrix(0,-0.629569,0.666668,0,-145.2667,445.364)"
       sodipodi:cx="-8.2364426"
       sodipodi:cy="279.60565"
       sodipodi:rx="3.6801128"
       sodipodi:ry="3.6801147" />
    <ellipse
       cx="-8.2364426"
       cy="279.60565"
       id="ellipse10037"
       rx="3.6801128"
       ry="3.6801147"
       style="fill:#ffffff;fill-opacity:1;fill-rule:evenodd;stroke:#000000;stroke-width:1.92949998"
       transform="matrix(0,-0.629569,0.666668,0,-133.1747,456.2866)"
       sodipodi:cx="-8.2364426"
       sodipodi:cy="279.60565"
       sodipodi:rx="3.6801128"
       sodipodi:ry="3.6801147" />
  </g>
  <g
     id="g10039"
     style="font-size:12px"
     transform="translate(242.56584,-330.31264)">
    <path
       d="M 48.75217,490.3264 C 49.10267,486.8233 48.92737,481.0151 49.10267,480.7232 L 53.26577,462.9538 L 43.14457,472.6046 L 40.94107,451.4021 L 32.00157,470.0491 L 21.54727,451.6385 L 21.10167,472.631 C 16.79317,468.9396 14.81737,466.5385 9.951273,462.8165 L 14.88807,480.8113 C 15.80677,485.1624 15.06327,487.3095 15.06327,490.0828 C 19.44427,492.1262 22.07737,494.3843 31.88647,494.4134 C 40.63887,494.2739 44.89677,492.5158 48.75217,490.3264 z "
       id="path10041"
       style="fill:#ffffff;fill-opacity:1;fill-rule:evenodd;stroke:#000000;stroke-width:1.25;stroke-linejoin:round" />
    <path
       d="M 14.92247,489.7087 C 17.15297,487.7414 23.59647,484.9018 31.52697,485.1204 C 39.45747,484.9018 46.39667,487.0877 48.62707,489.2734 C 48.87497,485.2512 48.87487,483.2116 48.87497,480.5886 C 45.65317,477.5285 40.69667,475.9399 31.52697,475.7212 C 22.32727,475.7212 18.63997,477.6885 15.17027,480.3116 C 14.67467,483.1531 15.41807,484.6814 14.92247,489.7087 z "
       id="path10043"
       style="fill:#ffffff;fill-opacity:1;fill-rule:evenodd;stroke:#000000;stroke-width:1.25;stroke-linejoin:round" />
    <ellipse
       cx="-8.2364426"
       cy="279.60565"
       id="ellipse10045"
       rx="3.6801128"
       ry="3.6801147"
       style="fill:#ffffff;fill-opacity:1;fill-rule:evenodd;stroke:#000000;stroke-width:1.92949998"
       transform="matrix(0.666667,0,0,0.629569,27.08877,274.4356)"
       sodipodi:cx="-8.2364426"
       sodipodi:cy="279.60565"
       sodipodi:rx="3.6801128"
       sodipodi:ry="3.6801147" />
    <ellipse
       cx="-8.2364426"
       cy="279.60565"
       id="ellipse10047"
       rx="3.6801128"
       ry="3.6801147"
       style="fill:#ffffff;fill-opacity:1;fill-rule:evenodd;stroke:#000000;stroke-width:1.92949998"
       transform="matrix(0.666667,0,0,0.629569,15.52267,285.8546)"
       sodipodi:cx="-8.2364426"
       sodipodi:cy="279.60565"
       sodipodi:rx="3.6801128"
       sodipodi:ry="3.6801147" />
    <ellipse
       cx="-8.2364426"
       cy="279.60565"
       id="ellipse10049"
       rx="3.6801128"
       ry="3.6801147"
       style="fill:#ffffff;fill-opacity:1;fill-rule:evenodd;stroke:#000000;stroke-width:1.92949998"
       transform="matrix(0,-0.629569,0.666668,0,-145.2667,445.364)"
       sodipodi:cx="-8.2364426"
       sodipodi:cy="279.60565"
       sodipodi:rx="3.6801128"
       sodipodi:ry="3.6801147" />
    <ellipse
       cx="-8.2364426"
       cy="279.60565"
       id="ellipse10051"
       rx="3.6801128"
       ry="3.6801147"
       style="fill:#ffffff;fill-opacity:1;fill-rule:evenodd;stroke:#000000;stroke-width:1.92949998"
       transform="matrix(0,-0.629569,0.666668,0,-133.1747,456.2866)"
       sodipodi:cx="-8.2364426"
       sodipodi:cy="279.60565"
       sodipodi:rx="3.6801128"
       sodipodi:ry="3.6801147" />
  </g>
  <g
     id="g10053"
     style="font-size:12px"
     transform="translate(186.27006,-443.04566)">
    <path
       d="M 48.75217,490.3264 C 49.10267,486.8233 48.92737,481.0151 49.10267,480.7232 L 53.26577,462.9538 L 43.14457,472.6046 L 40.94107,451.4021 L 32.00157,470.0491 L 21.54727,451.6385 L 21.10167,472.631 C 16.79317,468.9396 14.81737,466.5385 9.951273,462.8165 L 14.88807,480.8113 C 15.80677,485.1624 15.06327,487.3095 15.06327,490.0828 C 19.44427,492.1262 22.07737,494.3843 31.88647,494.4134 C 40.63887,494.2739 44.89677,492.5158 48.75217,490.3264 z "
       id="path10055"
       style="fill:#ffffff;fill-opacity:1;fill-rule:evenodd;stroke:#000000;stroke-width:1.25;stroke-linejoin:round" />
    <path
       d="M 14.92247,489.7087 C 17.15297,487.7414 23.59647,484.9018 31.52697,485.1204 C 39.45747,484.9018 46.39667,487.0877 48.62707,489.2734 C 48.87497,485.2512 48.87487,483.2116 48.87497,480.5886 C 45.65317,477.5285 40.69667,475.9399 31.52697,475.7212 C 22.32727,475.7212 18.63997,477.6885 15.17027,480.3116 C 14.67467,483.1531 15.41807,484.6814 14.92247,489.7087 z "
       id="path10057"
       style="fill:#ffffff;fill-opacity:1;fill-rule:evenodd;stroke:#000000;stroke-width:1.25;stroke-linejoin:round" />
    <ellipse
       cx="-8.2364426"
       cy="279.60565"
       id="ellipse10059"
       rx="3.6801128"
       ry="3.6801147"
       style="fill:#ffffff;fill-opacity:1;fill-rule:evenodd;stroke:#000000;stroke-width:1.92949998"
       transform="matrix(0.666667,0,0,0.629569,27.08877,274.4356)"
       sodipodi:cx="-8.2364426"
       sodipodi:cy="279.60565"
       sodipodi:rx="3.6801128"
       sodipodi:ry="3.6801147" />
    <ellipse
       cx="-8.2364426"
       cy="279.60565"
       id="ellipse10061"
       rx="3.6801128"
       ry="3.6801147"
       style="fill:#ffffff;fill-opacity:1;fill-rule:evenodd;stroke:#000000;stroke-width:1.92949998"
       transform="matrix(0.666667,0,0,0.629569,15.52267,285.8546)"
       sodipodi:cx="-8.2364426"
       sodipodi:cy="279.60565"
       sodipodi:rx="3.6801128"
       sodipodi:ry="3.6801147" />
    <ellipse
       cx="-8.2364426"
       cy="279.60565"
       id="ellipse10063"
       rx="3.6801128"
       ry="3.6801147"
       style="fill:#ffffff;fill-opacity:1;fill-rule:evenodd;stroke:#000000;stroke-width:1.92949998"
       transform="matrix(0,-0.629569,0.666668,0,-145.2667,445.364)"
       sodipodi:cx="-8.2364426"
       sodipodi:cy="279.60565"
       sodipodi:rx="3.6801128"
       sodipodi:ry="3.6801147" />
    <ellipse
       cx="-8.2364426"
       cy="279.60565"
       id="ellipse10065"
       rx="3.6801128"
       ry="3.6801147"
       style="fill:#ffffff;fill-opacity:1;fill-rule:evenodd;stroke:#000000;stroke-width:1.92949998"
       transform="matrix(0,-0.629569,0.666668,0,-133.1747,456.2866)"
       sodipodi:cx="-8.2364426"
       sodipodi:cy="279.60565"
       sodipodi:rx="3.6801128"
       sodipodi:ry="3.6801147" />
  </g>
  <g
     id="g10067"
     style="font-size:12px"
     transform="translate(411.45317,-386.67913)">
    <path
       d="M 48.75217,490.3264 C 49.10267,486.8233 48.92737,481.0151 49.10267,480.7232 L 53.26577,462.9538 L 43.14457,472.6046 L 40.94107,451.4021 L 32.00157,470.0491 L 21.54727,451.6385 L 21.10167,472.631 C 16.79317,468.9396 14.81737,466.5385 9.951273,462.8165 L 14.88807,480.8113 C 15.80677,485.1624 15.06327,487.3095 15.06327,490.0828 C 19.44427,492.1262 22.07737,494.3843 31.88647,494.4134 C 40.63887,494.2739 44.89677,492.5158 48.75217,490.3264 z "
       id="path10069"
       style="fill:#ffffff;fill-opacity:1;fill-rule:evenodd;stroke:#000000;stroke-width:1.25;stroke-linejoin:round" />
    <path
       d="M 14.92247,489.7087 C 17.15297,487.7414 23.59647,484.9018 31.52697,485.1204 C 39.45747,484.9018 46.39667,487.0877 48.62707,489.2734 C 48.87497,485.2512 48.87487,483.2116 48.87497,480.5886 C 45.65317,477.5285 40.69667,475.9399 31.52697,475.7212 C 22.32727,475.7212 18.63997,477.6885 15.17027,480.3116 C 14.67467,483.1531 15.41807,484.6814 14.92247,489.7087 z "
       id="path10071"
       style="fill:#ffffff;fill-opacity:1;fill-rule:evenodd;stroke:#000000;stroke-width:1.25;stroke-linejoin:round" />
    <ellipse
       cx="-8.2364426"
       cy="279.60565"
       id="ellipse10073"
       rx="3.6801128"
       ry="3.6801147"
       style="fill:#ffffff;fill-opacity:1;fill-rule:evenodd;stroke:#000000;stroke-width:1.92949998"
       transform="matrix(0.666667,0,0,0.629569,27.08877,274.4356)"
       sodipodi:cx="-8.2364426"
       sodipodi:cy="279.60565"
       sodipodi:rx="3.6801128"
       sodipodi:ry="3.6801147" />
    <ellipse
       cx="-8.2364426"
       cy="279.60565"
       id="ellipse10075"
       rx="3.6801128"
       ry="3.6801147"
       style="fill:#ffffff;fill-opacity:1;fill-rule:evenodd;stroke:#000000;stroke-width:1.92949998"
       transform="matrix(0.666667,0,0,0.629569,15.52267,285.8546)"
       sodipodi:cx="-8.2364426"
       sodipodi:cy="279.60565"
       sodipodi:rx="3.6801128"
       sodipodi:ry="3.6801147" />
    <ellipse
       cx="-8.2364426"
       cy="279.60565"
       id="ellipse10077"
       rx="3.6801128"
       ry="3.6801147"
       style="fill:#ffffff;fill-opacity:1;fill-rule:evenodd;stroke:#000000;stroke-width:1.92949998"
       transform="matrix(0,-0.629569,0.666668,0,-145.2667,445.364)"
       sodipodi:cx="-8.2364426"
       sodipodi:cy="279.60565"
       sodipodi:rx="3.6801128"
       sodipodi:ry="3.6801147" />
    <ellipse
       cx="-8.2364426"
       cy="279.60565"
       id="ellipse10079"
       rx="3.6801128"
       ry="3.6801147"
       style="fill:#ffffff;fill-opacity:1;fill-rule:evenodd;stroke:#000000;stroke-width:1.92949998"
       transform="matrix(0,-0.629569,0.666668,0,-133.1747,456.2866)"
       sodipodi:cx="-8.2364426"
       sodipodi:cy="279.60565"
       sodipodi:rx="3.6801128"
       sodipodi:ry="3.6801147" />
  </g>
  <g
     id="g10081"
     style="font-size:12px"
     transform="translate(355.15739,-161.21309)">
    <path
       d="M 48.75217,490.3264 C 49.10267,486.8233 48.92737,481.0151 49.10267,480.7232 L 53.26577,462.9538 L 43.14457,472.6046 L 40.94107,451.4021 L 32.00157,470.0491 L 21.54727,451.6385 L 21.10167,472.631 C 16.79317,468.9396 14.81737,466.5385 9.951273,462.8165 L 14.88807,480.8113 C 15.80677,485.1624 15.06327,487.3095 15.06327,490.0828 C 19.44427,492.1262 22.07737,494.3843 31.88647,494.4134 C 40.63887,494.2739 44.89677,492.5158 48.75217,490.3264 z "
       id="path10083"
       style="fill:#ffffff;fill-opacity:1;fill-rule:evenodd;stroke:#000000;stroke-width:1.25;stroke-linejoin:round" />
    <path
       d="M 14.92247,489.7087 C 17.15297,487.7414 23.59647,484.9018 31.52697,485.1204 C 39.45747,484.9018 46.39667,487.0877 48.62707,489.2734 C 48.87497,485.2512 48.87487,483.2116 48.87497,480.5886 C 45.65317,477.5285 40.69667,475.9399 31.52697,475.7212 C 22.32727,475.7212 18.63997,477.6885 15.17027,480.3116 C 14.67467,483.1531 15.41807,484.6814 14.92247,489.7087 z "
       id="path10085"
       style="fill:#ffffff;fill-opacity:1;fill-rule:evenodd;stroke:#000000;stroke-width:1.25;stroke-linejoin:round" />
    <ellipse
       cx="-8.2364426"
       cy="279.60565"
       id="ellipse10087"
       rx="3.6801128"
       ry="3.6801147"
       style="fill:#ffffff;fill-opacity:1;fill-rule:evenodd;stroke:#000000;stroke-width:1.92949998"
       transform="matrix(0.666667,0,0,0.629569,27.08877,274.4356)"
       sodipodi:cx="-8.2364426"
       sodipodi:cy="279.60565"
       sodipodi:rx="3.6801128"
       sodipodi:ry="3.6801147" />
    <ellipse
       cx="-8.2364426"
       cy="279.60565"
       id="ellipse10089"
       rx="3.6801128"
       ry="3.6801147"
       style="fill:#ffffff;fill-opacity:1;fill-rule:evenodd;stroke:#000000;stroke-width:1.92949998"
       transform="matrix(0.666667,0,0,0.629569,15.52267,285.8546)"
       sodipodi:cx="-8.2364426"
       sodipodi:cy="279.60565"
       sodipodi:rx="3.6801128"
       sodipodi:ry="3.6801147" />
    <ellipse
       cx="-8.2364426"
       cy="279.60565"
       id="ellipse10091"
       rx="3.6801128"
       ry="3.6801147"
       style="fill:#ffffff;fill-opacity:1;fill-rule:evenodd;stroke:#000000;stroke-width:1.92949998"
       transform="matrix(0,-0.629569,0.666668,0,-145.2667,445.364)"
       sodipodi:cx="-8.2364426"
       sodipodi:cy="279.60565"
       sodipodi:rx="3.6801128"
       sodipodi:ry="3.6801147" />
    <ellipse
       cx="-8.2364426"
       cy="279.60565"
       id="ellipse10093"
       rx="3.6801128"
       ry="3.6801147"
       style="fill:#ffffff;fill-opacity:1;fill-rule:evenodd;stroke:#000000;stroke-width:1.92949998"
       transform="matrix(0,-0.629569,0.666668,0,-133.1747,456.2866)"
       sodipodi:cx="-8.2364426"
       sodipodi:cy="279.60565"
       sodipodi:rx="3.6801128"
       sodipodi:ry="3.6801147" />
  </g>
  <g
     id="g10095"
     style="font-size:12px"
     transform="translate(129.97428,-273.94612)">
    <path
       d="M 48.75217,490.3264 C 49.10267,486.8233 48.92737,481.0151 49.10267,480.7232 L 53.26577,462.9538 L 43.14457,472.6046 L 40.94107,451.4021 L 32.00157,470.0491 L 21.54727,451.6385 L 21.10167,472.631 C 16.79317,468.9396 14.81737,466.5385 9.951273,462.8165 L 14.88807,480.8113 C 15.80677,485.1624 15.06327,487.3095 15.06327,490.0828 C 19.44427,492.1262 22.07737,494.3843 31.88647,494.4134 C 40.63887,494.2739 44.89677,492.5158 48.75217,490.3264 z "
       id="path10097"
       style="fill:#ffffff;fill-opacity:1;fill-rule:evenodd;stroke:#000000;stroke-width:1.25;stroke-linejoin:round" />
    <path
       d="M 14.92247,489.7087 C 17.15297,487.7414 23.59647,484.9018 31.52697,485.1204 C 39.45747,484.9018 46.39667,487.0877 48.62707,489.2734 C 48.87497,485.2512 48.87487,483.2116 48.87497,480.5886 C 45.65317,477.5285 40.69667,475.9399 31.52697,475.7212 C 22.32727,475.7212 18.63997,477.6885 15.17027,480.3116 C 14.67467,483.1531 15.41807,484.6814 14.92247,489.7087 z "
       id="path10099"
       style="fill:#ffffff;fill-opacity:1;fill-rule:evenodd;stroke:#000000;stroke-width:1.25;stroke-linejoin:round" />
    <ellipse
       cx="-8.2364426"
       cy="279.60565"
       id="ellipse10101"
       rx="3.6801128"
       ry="3.6801147"
       style="fill:#ffffff;fill-opacity:1;fill-rule:evenodd;stroke:#000000;stroke-width:1.92949998"
       transform="matrix(0.666667,0,0,0.629569,27.08877,274.4356)"
       sodipodi:cx="-8.2364426"
       sodipodi:cy="279.60565"
       sodipodi:rx="3.6801128"
       sodipodi:ry="3.6801147" />
    <ellipse
       cx="-8.2364426"
       cy="279.60565"
       id="ellipse10103"
       rx="3.6801128"
       ry="3.6801147"
       style="fill:#ffffff;fill-opacity:1;fill-rule:evenodd;stroke:#000000;stroke-width:1.92949998"
       transform="matrix(0.666667,0,0,0.629569,15.52267,285.8546)"
       sodipodi:cx="-8.2364426"
       sodipodi:cy="279.60565"
       sodipodi:rx="3.6801128"
       sodipodi:ry="3.6801147" />
    <ellipse
       cx="-8.2364426"
       cy="279.60565"
       id="ellipse10105"
       rx="3.6801128"
       ry="3.6801147"
       style="fill:#ffffff;fill-opacity:1;fill-rule:evenodd;stroke:#000000;stroke-width:1.92949998"
       transform="matrix(0,-0.629569,0.666668,0,-145.2667,445.364)"
       sodipodi:cx="-8.2364426"
       sodipodi:cy="279.60565"
       sodipodi:rx="3.6801128"
       sodipodi:ry="3.6801147" />
    <ellipse
       cx="-8.2364426"
       cy="279.60565"
       id="ellipse10107"
       rx="3.6801128"
       ry="3.6801147"
       style="fill:#ffffff;fill-opacity:1;fill-rule:evenodd;stroke:#000000;stroke-width:1.92949998"
       transform="matrix(0,-0.629569,0.666668,0,-133.1747,456.2866)"
       sodipodi:cx="-8.2364426"
       sodipodi:cy="279.60565"
       sodipodi:rx="3.6801128"
       sodipodi:ry="3.6801147" />
  </g>
  <g
     id="g10109"
     style="font-size:12px"
     transform="translate(73.678495,-104.84658)">
    <path
       d="M 48.75217,490.3264 C 49.10267,486.8233 48.92737,481.0151 49.10267,480.7232 L 53.26577,462.9538 L 43.14457,472.6046 L 40.94107,451.4021 L 32.00157,470.0491 L 21.54727,451.6385 L 21.10167,472.631 C 16.79317,468.9396 14.81737,466.5385 9.951273,462.8165 L 14.88807,480.8113 C 15.80677,485.1624 15.06327,487.3095 15.06327,490.0828 C 19.44427,492.1262 22.07737,494.3843 31.88647,494.4134 C 40.63887,494.2739 44.89677,492.5158 48.75217,490.3264 z "
       id="path10111"
       style="fill:#ffffff;fill-opacity:1;fill-rule:evenodd;stroke:#000000;stroke-width:1.25;stroke-linejoin:round" />
    <path
       d="M 14.92247,489.7087 C 17.15297,487.7414 23.59647,484.9018 31.52697,485.1204 C 39.45747,484.9018 46.39667,487.0877 48.62707,489.2734 C 48.87497,485.2512 48.87487,483.2116 48.87497,480.5886 C 45.65317,477.5285 40.69667,475.9399 31.52697,475.7212 C 22.32727,475.7212 18.63997,477.6885 15.17027,480.3116 C 14.67467,483.1531 15.41807,484.6814 14.92247,489.7087 z "
       id="path10113"
       style="fill:#ffffff;fill-opacity:1;fill-rule:evenodd;stroke:#000000;stroke-width:1.25;stroke-linejoin:round" />
    <ellipse
       cx="-8.2364426"
       cy="279.60565"
       id="ellipse10115"
       rx="3.6801128"
       ry="3.6801147"
       style="fill:#ffffff;fill-opacity:1;fill-rule:evenodd;stroke:#000000;stroke-width:1.92949998"
       transform="matrix(0.666667,0,0,0.629569,27.08877,274.4356)"
       sodipodi:cx="-8.2364426"
       sodipodi:cy="279.60565"
       sodipodi:rx="3.6801128"
       sodipodi:ry="3.6801147" />
    <ellipse
       cx="-8.2364426"
       cy="279.60565"
       id="ellipse10117"
       rx="3.6801128"
       ry="3.6801147"
       style="fill:#ffffff;fill-opacity:1;fill-rule:evenodd;stroke:#000000;stroke-width:1.92949998"
       transform="matrix(0.666667,0,0,0.629569,15.52267,285.8546)"
       sodipodi:cx="-8.2364426"
       sodipodi:cy="279.60565"
       sodipodi:rx="3.6801128"
       sodipodi:ry="3.6801147" />
    <ellipse
       cx="-8.2364426"
       cy="279.60565"
       id="ellipse10119"
       rx="3.6801128"
       ry="3.6801147"
       style="fill:#ffffff;fill-opacity:1;fill-rule:evenodd;stroke:#000000;stroke-width:1.92949998"
       transform="matrix(0,-0.629569,0.666668,0,-145.2667,445.364)"
       sodipodi:cx="-8.2364426"
       sodipodi:cy="279.60565"
       sodipodi:rx="3.6801128"
       sodipodi:ry="3.6801147" />
    <ellipse
       cx="-8.2364426"
       cy="279.60565"
       id="ellipse10121"
       rx="3.6801128"
       ry="3.6801147"
       style="fill:#ffffff;fill-opacity:1;fill-rule:evenodd;stroke:#000000;stroke-width:1.92949998"
       transform="matrix(0,-0.629569,0.666668,0,-133.1747,456.2866)"
       sodipodi:cx="-8.2364426"
       sodipodi:cy="279.60565"
       sodipodi:rx="3.6801128"
       sodipodi:ry="3.6801147" />
  </g>
  <flowRoot
     xml:space="preserve"
     id="flowRoot11100"
     style="text-align:center;text-anchor:middle"
     transform="translate(20.233867,-0.9511718)"><flowRegion
       id="flowRegion11102"><rect
         id="rect11104"
         width="57.982758"
         height="33.941124"
         x="-0.70710677"
         y="457.44974"
         style="text-align:center;text-anchor:middle" /></flowRegion><flowPara
       id="flowPara11106"
       style="font-size:20px">A</flowPara></flowRoot>  <flowRoot
     xml:space="preserve"
     id="flowRoot11116"
     style="font-size:20px;text-align:center;text-anchor:middle"
     transform="translate(19.810458,-0.2636718)"><flowRegion
       id="flowRegion11118"><rect
         id="rect11120"
         width="56.568542"
         height="27.577164"
         x="56.568542"
         y="456.74265"
         style="font-size:20px;text-align:center;text-anchor:middle" /></flowRegion><flowPara
       id="flowPara11122">B</flowPara></flowRoot>  <flowRoot
     xml:space="preserve"
     id="flowRoot11124"
     style="font-size:20px;text-align:center;text-anchor:middle"
     transform="translate(19.558925,-0.6874999)"><flowRegion
       id="flowRegion11126"><rect
         id="rect11128"
         width="55.861435"
         height="28.284271"
         x="113.84419"
         y="457.44974"
         style="font-size:20px;text-align:center;text-anchor:middle" /></flowRegion><flowPara
       id="flowPara11130">C</flowPara></flowRoot>  <flowRoot
     xml:space="preserve"
     id="flowRoot11132"
     style="font-size:20px;text-align:center;text-anchor:middle"
     transform="translate(20.434344,-0.2636718)"><flowRegion
       id="flowRegion11134"><rect
         id="rect11136"
         width="55.861435"
         height="33.23402"
         x="168.99852"
         y="456.74265"
         style="font-size:20px;text-align:center;text-anchor:middle" /></flowRegion><flowPara
       id="flowPara11138">D</flowPara></flowRoot>  <flowRoot
     xml:space="preserve"
     id="flowRoot11140"
     style="font-size:20px;text-align:center;text-anchor:middle"
     transform="translate(20.352733,-0.2636718)"><flowRegion
       id="flowRegion11142"><rect
         id="rect11144"
         width="55.861435"
         height="28.991379"
         x="225.56706"
         y="456.74265"
         style="font-size:20px;text-align:center;text-anchor:middle" /></flowRegion><flowPara
       id="flowPara11146">E</flowPara></flowRoot>  <flowRoot
     xml:space="preserve"
     id="flowRoot11148"
     style="font-size:20px;text-align:center;text-anchor:middle"
     transform="translate(20.852176,-0.9511718)"><flowRegion
       id="flowRegion11150"><rect
         id="rect11152"
         width="55.861435"
         height="29.698484"
         x="281.4285"
         y="457.44974"
         style="font-size:20px;text-align:center;text-anchor:middle" /></flowRegion><flowPara
       id="flowPara11154">F</flowPara></flowRoot>  <flowRoot
     xml:space="preserve"
     id="flowRoot11156"
     style="font-size:20px;text-align:center;text-anchor:middle"
     transform="translate(21.361385,0)"><flowRegion
       id="flowRegion11158"><rect
         id="rect11160"
         width="55.861435"
         height="29.698484"
         x="337.99704"
         y="456.74265"
         style="font-size:20px;text-align:center;text-anchor:middle" /></flowRegion><flowPara
       id="flowPara11162"
       style="font-weight:normal">G</flowPara></flowRoot>  <flowRoot
     xml:space="preserve"
     id="flowRoot11164"
     style="font-size:20px;text-align:center;text-anchor:middle"
     transform="translate(20.233874,-0.9511718)"><flowRegion
       id="flowRegion11166"><rect
         id="rect11168"
         width="57.27565"
         height="31.112698"
         x="394.56558"
         y="457.44974"
         style="font-size:20px;text-align:center;text-anchor:middle" /></flowRegion><flowPara
       id="flowPara11170">H</flowPara></flowRoot>  <flowRoot
     xml:space="preserve"
     id="flowRoot11172"
     style="font-size:20px;text-align:center;writing-mode:tb-rl;text-anchor:middle"
     transform="translate(19.446757,0)"><flowRegion
       id="flowRegion11174"><rect
         id="rect11176"
         width="43.840622"
         height="57.27565"
         x="-48.790367"
         y="-0.048338167"
         style="font-size:20px;text-align:center;writing-mode:tb-rl;text-anchor:middle" /></flowRegion><flowPara
       id="flowPara11178">8</flowPara></flowRoot>  <flowRoot
     xml:space="preserve"
     id="flowRoot11180"
     style="font-size:20px;text-align:center;writing-mode:tb-rl;text-anchor:middle"
     transform="translate(20.194804,-0.4960937)"><flowRegion
       id="flowRegion11182"><rect
         id="rect11184"
         width="45.961941"
         height="56.568542"
         x="-51.618793"
         y="57.22731"
         style="font-size:20px;text-align:center;writing-mode:tb-rl;text-anchor:middle" /></flowRegion><flowPara
       id="flowPara11186">7</flowPara></flowRoot>  <flowRoot
     xml:space="preserve"
     id="flowRoot11188"
     style="font-size:20px;text-align:center;writing-mode:tb-rl;text-anchor:middle"
     transform="translate(20.092265,5.078125e-2)"><flowRegion
       id="flowRegion11190"><rect
         id="rect11192"
         width="60.104076"
         height="55.154327"
         x="-65.760933"
         y="113.79585"
         style="font-size:20px;text-align:center;writing-mode:tb-rl;text-anchor:middle" /></flowRegion><flowPara
       id="flowPara11194">6</flowPara></flowRoot>  <flowRoot
     xml:space="preserve"
     id="flowRoot11196"
     style="font-size:20px;text-align:center;writing-mode:tb-rl;text-anchor:middle"
     transform="translate(19.544414,0.4599609)"><flowRegion
       id="flowRegion11198"><rect
         id="rect11200"
         width="65.053825"
         height="55.154327"
         x="-70.003571"
         y="169.65729"
         style="font-size:20px;text-align:center;writing-mode:tb-rl;text-anchor:middle" /></flowRegion><flowPara
       id="flowPara11202">5</flowPara></flowRoot>  <flowRoot
     xml:space="preserve"
     id="flowRoot11204"
     style="font-size:20px;text-align:center;writing-mode:tb-rl;text-anchor:middle"
     transform="translate(20.233867,0.4394531)"><flowRegion
       id="flowRegion11206"><rect
         id="rect11208"
         width="56.568542"
         height="56.568542"
         x="-62.225395"
         y="225.51872"
         style="font-size:20px;text-align:center;writing-mode:tb-rl;text-anchor:middle" /></flowRegion><flowPara
       id="flowPara11210">4</flowPara></flowRoot>  <flowRoot
     xml:space="preserve"
     id="flowRoot11212"
     style="font-size:20px;text-align:center;writing-mode:tb-rl;text-anchor:middle"
     transform="translate(20.199687,0.9863281)"><flowRegion
       id="flowRegion11214"><rect
         id="rect11216"
         width="66.46804"
         height="55.154327"
         x="-72.124893"
         y="282.08728"
         style="font-size:20px;text-align:center;writing-mode:tb-rl;text-anchor:middle" /></flowRegion><flowPara
       id="flowPara11218">3</flowPara></flowRoot>  <flowRoot
     xml:space="preserve"
     id="flowRoot11220"
     style="font-size:20px;text-align:center;writing-mode:tb-rl;text-anchor:middle"
     transform="translate(19.710429,0.9814453)"><flowRegion
       id="flowRegion11222"><rect
         id="rect11224"
         width="70.710678"
         height="56.568542"
         x="-75.660423"
         y="337.9487"
         style="font-size:20px;text-align:center;writing-mode:tb-rl;text-anchor:middle" /></flowRegion><flowPara
       id="flowPara11226">2</flowPara></flowRoot>  <flowRoot
     xml:space="preserve"
     id="flowRoot11228"
     style="font-size:20px;text-align:center;writing-mode:tb-rl;text-anchor:middle"
     transform="translate(19.266093,0)"><flowRegion
       id="flowRegion11230"><rect
         id="rect11232"
         width="71.417786"
         height="56.568542"
         x="-76.367531"
         y="395.22437"
         style="font-size:20px;text-align:center;writing-mode:tb-rl;text-anchor:middle" /></flowRegion><flowPara
       id="flowPara11234">1</flowPara></flowRoot></svg>
